<svg width="21" height="21" viewBox="0 0 21 21" fill="none" xmlns="http://www.w3.org/2000/svg">
<path d="M2.475 0.0337391C1.41562 0.211864 0.525 0.980614 0.145312 2.04468L0 2.44312V10.0134V17.5837L0.145312 17.9822C0.478125 18.915 1.12969 19.5572 2.08125 19.8947L2.4375 20.0212H10.0078H17.5781L17.9531 19.89C18.4453 19.7166 18.8016 19.4916 19.1437 19.1494C19.4859 18.8072 19.7109 18.4509 19.8844 17.9587L20.0156 17.5837V10.0134V2.44312L19.8844 2.06812C19.5516 1.13062 18.9047 0.479052 17.9766 0.150927L17.5781 0.00561523L10.1484 0.000926971C6.06094 -0.00376129 2.61094 0.0103016 2.475 0.0337391ZM17.6016 1.67436C17.9297 1.82905 18.1922 2.09155 18.3469 2.41968L18.4687 2.67749V10.0134V17.3494L18.3562 17.5931C18.2203 17.9025 17.8359 18.2634 17.5312 18.3853C17.3016 18.4697 17.0906 18.4744 9.98437 18.4744H2.67187L2.41406 18.3525C2.08594 18.1978 1.82344 17.9353 1.66875 17.6072L1.54687 17.3494V10.0134V2.67749L1.66875 2.41968C1.87031 1.99311 2.24531 1.68374 2.68125 1.58061C2.78437 1.55718 5.97187 1.54311 10.1016 1.54311L17.3437 1.55249L17.6016 1.67436Z" fill="#B6B0D9"/>
<path d="M6.04219 5.92108C5.9625 5.96795 5.71875 6.19295 5.50781 6.42733C5.29219 6.65702 5.05781 6.91014 4.9875 6.98983L4.85156 7.12577L4.65469 6.93358C4.39219 6.68514 4.29375 6.63827 4.03125 6.63827C3.5625 6.63827 3.25781 6.93358 3.25781 7.37889C3.25781 7.51483 3.29062 7.68827 3.32812 7.75858C3.4125 7.92733 4.43437 8.8742 4.59844 8.93514C4.7625 9.00077 5.10469 8.99608 5.25 8.92577C5.42344 8.84608 7.05 7.07889 7.13437 6.88202C7.34062 6.38514 6.97031 5.84139 6.42656 5.84139C6.28594 5.84139 6.12656 5.8742 6.04219 5.92108Z" fill="#B6B0D9"/>
<path d="M8.09531 6.73206C7.86563 6.87268 7.75781 7.08362 7.75781 7.39299C7.75781 7.70237 7.875 7.91331 8.13281 8.06331C8.29688 8.16174 8.34844 8.16174 12.2578 8.16174C16.1672 8.16174 16.2188 8.16174 16.3828 8.06331C16.6406 7.91331 16.7578 7.70237 16.7578 7.39299C16.7578 7.08362 16.65 6.87268 16.4203 6.73206C16.2703 6.64299 16.1766 6.63831 12.2578 6.63831C8.33906 6.63831 8.24531 6.64299 8.09531 6.73206Z" fill="#B6B0D9"/>
<path d="M6.04683 11.129C5.96714 11.1806 5.67183 11.4665 5.38121 11.7759L4.8609 12.329L4.64527 12.1321C4.52808 12.0243 4.37339 11.9118 4.30777 11.8884C3.9609 11.7571 3.47808 11.9259 3.33277 12.2353C3.22965 12.4509 3.23433 12.8118 3.34683 12.99C3.4359 13.1446 4.3734 14.0306 4.53746 14.1243C4.67808 14.204 5.10933 14.1993 5.26871 14.115C5.48433 14.0071 7.08277 12.2493 7.14839 12.0525C7.26558 11.6962 7.09683 11.2837 6.76871 11.115C6.58589 11.0165 6.22027 11.0259 6.04683 11.129Z" fill="#B6B0D9"/>
<path d="M8.09531 11.9352C7.86563 12.0758 7.75781 12.2867 7.75781 12.5961C7.75781 12.9055 7.875 13.1164 8.13281 13.2664C8.29688 13.3649 8.34844 13.3649 12.2578 13.3649C16.1672 13.3649 16.2188 13.3649 16.3828 13.2664C16.6406 13.1164 16.7578 12.9055 16.7578 12.5961C16.7578 12.2867 16.65 12.0758 16.4203 11.9352C16.2703 11.8461 16.1766 11.8414 12.2578 11.8414C8.33906 11.8414 8.24531 11.8461 8.09531 11.9352Z" fill="#B6B0D9"/>
</svg>
