<svg width="18" height="22" viewBox="0 0 18 22" fill="none" xmlns="http://www.w3.org/2000/svg">
<path d="M7.38692 0.0703602C5.43692 0.35161 3.66036 1.28911 2.29161 2.76099C0.440045 4.75317 -0.37558 7.60786 0.163482 10.2C0.552545 12.075 1.68692 13.9688 3.18692 15.2719C3.44473 15.4922 3.77754 15.7594 3.92286 15.8625L4.19473 16.05V16.7485C4.19473 17.1563 4.21817 17.5266 4.25098 17.6391C4.34004 17.9344 4.71504 18.2813 5.06192 18.3938C5.32911 18.4829 5.49786 18.4875 8.64786 18.4875H11.9525L12.2338 18.375C12.4166 18.3 12.5947 18.1782 12.7541 18.0188C13.0822 17.6907 13.1479 17.4704 13.1479 16.6641L13.1525 16.05L13.4854 15.8157C13.9166 15.511 14.8072 14.6579 15.1916 14.1797C16.7057 12.286 17.4697 9.95161 17.2775 7.7813C17.0807 5.53599 16.1338 3.63755 14.465 2.13755C14.0807 1.79536 13.2697 1.23286 12.7682 0.97036C11.9666 0.543798 10.94 0.215673 9.95098 0.0703602C9.34161 -0.0233898 8.01036 -0.0233898 7.38692 0.0703602ZM9.89004 1.61255C11.3385 1.86567 12.5666 2.48442 13.6025 3.47817C14.4416 4.28911 14.9994 5.15161 15.365 6.2063C15.6557 7.04067 15.7025 7.35942 15.7025 8.43286C15.7025 9.30474 15.6885 9.44067 15.576 9.90942C15.1025 11.9063 13.94 13.5938 12.2479 14.7469C11.6197 15.1735 11.601 15.2157 11.601 16.2047V16.9641H8.64786H5.69473V16.186C5.69473 15.2063 5.68067 15.1782 5.04317 14.7469C3.29004 13.5516 2.05723 11.7657 1.63067 9.79224C1.50411 9.19692 1.51817 7.92661 1.65879 7.26099C1.95879 5.83599 2.61036 4.62661 3.60879 3.62817C4.23692 3.00005 4.78536 2.6063 5.53067 2.24536C6.31348 1.86567 7.04942 1.64536 7.89786 1.54224C8.36192 1.48598 9.36504 1.52349 9.89004 1.61255Z" fill="#BEB9DD"/>
<path d="M8.24941 5.96726C8.08534 6.0657 7.97753 6.22507 7.44784 7.1532C7.11034 7.73913 6.81034 8.29226 6.78222 8.38132C6.61816 8.86413 6.79159 9.48757 7.16191 9.74069C7.46191 9.94226 7.63066 9.97976 8.23066 9.97976C8.54003 9.97976 8.78847 9.98913 8.78847 10.0079C8.78847 10.0219 8.59628 10.3641 8.35722 10.7673C7.96816 11.4329 7.92597 11.5313 7.90722 11.7844C7.89316 12.0235 7.90722 12.0891 8.00097 12.2251C8.25409 12.5954 8.64316 12.7032 9.01816 12.5016C9.21034 12.3985 9.27597 12.3094 9.81034 11.386C10.1338 10.8329 10.4338 10.2798 10.4807 10.1532C10.6869 9.63288 10.5322 8.99069 10.1338 8.71882C9.83378 8.51726 9.66503 8.47976 9.06503 8.47976C8.75566 8.47976 8.50722 8.47038 8.50722 8.45632C8.50722 8.44226 8.70878 8.08132 8.95253 7.65007C9.35566 6.94695 9.39784 6.84382 9.39784 6.6282C9.39784 6.32351 9.27597 6.09382 9.04159 5.96257C8.79316 5.81726 8.49316 5.82195 8.24941 5.96726Z" fill="#BEB9DD"/>
<path d="M7.89783 19.4766C6.38845 19.6032 4.9822 19.8798 4.66345 20.1048C4.49001 20.2313 4.3822 20.4704 4.3822 20.747C4.3822 21.0141 4.50408 21.2391 4.7197 21.3704C4.9822 21.5298 5.13689 21.5298 5.74158 21.3751C6.7447 21.122 7.51345 21.0282 8.64783 21.0282C9.78689 21.0282 10.4853 21.1126 11.5447 21.3751C12.2197 21.5438 12.3791 21.5345 12.6556 21.3141C13.0072 21.0423 12.9978 20.4423 12.6369 20.1376C12.2713 19.8282 10.4806 19.5095 8.93377 19.4766C8.47908 19.4673 8.01502 19.4673 7.89783 19.4766Z" fill="#BEB9DD"/>
</svg>
