<svg width="19" height="22" viewBox="0 0 19 22" fill="none" xmlns="http://www.w3.org/2000/svg">
<path d="M4.51939 0.0466862C4.00376 0.168562 3.59126 0.473249 3.36157 0.909187C3.25376 1.11075 2.80845 2.69981 1.60845 7.15763C0.0662607 12.8904 0.000635702 13.1529 0.000635702 13.5561C-0.0040518 13.9311 0.0146982 14.0107 0.141261 14.2826C0.319386 14.6576 0.614698 14.9576 0.966261 15.1264C1.11157 15.1967 1.51001 15.3232 1.84751 15.4123L2.45689 15.5717V17.7139C2.45689 19.1201 2.47564 19.9404 2.50845 20.1045C2.61626 20.5967 2.88814 21.0045 3.29126 21.2623C3.7647 21.5623 3.44126 21.5529 10.36 21.5389L16.6366 21.5248L16.9038 21.417C17.2834 21.2623 17.6538 20.9107 17.8413 20.5264L17.9959 20.2123L18.0194 13.392L18.0475 6.57169L18.2209 5.98575C18.4413 5.24981 18.4834 4.83731 18.3709 4.46231C18.2256 3.93731 17.8694 3.52013 17.4053 3.31856C17.2928 3.267 15.8069 2.8545 14.1053 2.39981C12.4038 1.94513 10.3178 1.38731 9.4647 1.15763C4.7772 -0.0986252 4.97407 -0.0564384 4.51939 0.0466862ZM9.32407 2.72794C11.6959 3.36544 14.3444 4.07325 15.2069 4.30294C16.6834 4.69669 16.8944 4.77637 16.8944 4.917C16.8944 4.99669 14.6303 13.4154 14.6022 13.4436C14.5881 13.4576 13.9647 13.3076 13.2147 13.1061C12.4694 12.9045 11.7616 12.7357 11.6491 12.7357C11.4006 12.7357 11.1288 12.8811 11.0163 13.0686C10.9694 13.1436 10.7678 13.8326 10.5616 14.5967C10.3553 15.3654 10.1772 15.9982 10.1678 16.0076C10.1491 16.0311 10.2288 16.0498 5.17564 14.6951C2.73814 14.0436 1.65532 13.7342 1.59439 13.6732C1.50532 13.5842 1.52407 13.5045 3.09439 7.64044C4.16782 3.62794 4.71157 1.67325 4.76782 1.61231C4.8147 1.56544 4.8897 1.53731 4.93189 1.55137C4.97407 1.56544 6.9522 2.09513 9.32407 2.72794ZM16.3975 19.917C16.3225 19.9967 16.0788 20.0014 10.2522 20.0014C4.2522 20.0014 4.19126 20.0014 4.09751 19.9076C4.00845 19.8186 4.00376 19.7529 4.00376 17.9154C4.00376 16.5889 4.01782 16.017 4.05532 16.017C4.08345 16.017 5.5647 16.4107 7.34595 16.8889C9.92876 17.5826 10.6319 17.7561 10.8053 17.7373C10.9834 17.7232 11.4006 17.4982 13.2428 16.4389C14.4663 15.7357 15.535 15.1076 15.6194 15.0467C15.6991 14.9857 15.7975 14.8779 15.835 14.8076C15.8725 14.7373 16.0225 14.217 16.1725 13.6498L16.4491 12.6186L16.4631 16.2232C16.4725 19.5279 16.4678 19.8373 16.3975 19.917ZM13.0975 14.7045C13.0975 14.7186 12.9756 14.7936 12.8256 14.8779C12.6803 14.9623 12.4225 15.1076 12.2584 15.2014C12.0147 15.342 11.9678 15.3561 11.9866 15.2857C12.0006 15.2342 12.0569 15.0279 12.1131 14.817L12.2116 14.4373L12.6569 14.5592C12.9006 14.6248 13.0975 14.6904 13.0975 14.7045Z" fill="#2A2251"/>
<path d="M6.31946 4.10603C6.05227 4.22791 5.91164 4.44353 5.88821 4.76228C5.87414 4.97791 5.88821 5.05291 5.98196 5.18416C6.03821 5.27322 6.14133 5.38572 6.20696 5.43259C6.36633 5.54978 13.2382 7.39197 13.5148 7.39197C14.1007 7.39197 14.457 6.75916 14.157 6.24353C14.0913 6.14041 13.9741 6.01384 13.8851 5.97166C13.7116 5.88259 6.99446 4.07322 6.69914 4.03572C6.57258 4.02166 6.45071 4.04041 6.31946 4.10603Z" fill="#2A2251"/>
<path d="M5.51317 7.04986C5.12879 7.23736 4.98348 7.70142 5.18504 8.09517C5.24598 8.20767 5.35848 8.33892 5.43348 8.3858C5.51317 8.42799 7.15848 8.89205 9.08973 9.40767C12.835 10.4155 12.8632 10.4202 13.1397 10.2186C13.585 9.8858 13.5897 9.25299 13.1444 8.93424C13.0038 8.83111 6.06161 6.97017 5.83192 6.97017C5.74286 6.97017 5.59754 7.00767 5.51317 7.04986Z" fill="#2A2251"/>
<path d="M4.66943 10.017C4.16787 10.3217 4.18662 11.081 4.70693 11.3529C4.92256 11.4654 7.82881 12.2201 8.04443 12.2201C8.41474 12.2201 8.72881 11.9295 8.77099 11.5498C8.8038 11.2779 8.65381 10.9498 8.44287 10.8185C8.23193 10.692 5.31631 9.92322 5.04443 9.92322C4.90849 9.92322 4.76787 9.96072 4.66943 10.017Z" fill="#2A2251"/>
</svg>
